<svg id="Layer_1" data-name="Layer 1" xmlns="http://www.w3.org/2000/svg" viewBox="0 0 247.88 248.2"><defs><style>.cls-1{fill:#f8f7f5;}</style></defs><title>settings</title><path class="cls-1" d="M609,224.44h-9.82c-8,0-14.73-6.91-14.73-15.12a14.15,14.15,0,0,1,4.84-10.66l6.33-6.2a15.88,15.88,0,0,0,0-22.56l-14.41-14.28a16.4,16.4,0,0,0-22.61,0l-6.08,6.08a14.57,14.57,0,0,1-11,5c-8.27,0-15.19-6.72-15.19-14.66v-9.89c0-8.72-7-16.22-15.83-16.22H490.89c-8.79,0-15.77,7.43-15.77,16.22v9.82c0,7.95-6.91,14.67-15.18,14.67a14.47,14.47,0,0,1-10.73-4.78l-6.27-6.21a15.94,15.94,0,0,0-11.31-4.52,16.34,16.34,0,0,0-11.31,4.52l-14.54,14.22a15.92,15.92,0,0,0,0,22.49l6.08,6.07a14.64,14.64,0,0,1,5,10.92,15.06,15.06,0,0,1-14.73,15.12h-9.83c-8.85,0-16.28,6.92-16.28,15.71v19.64c0,8.72,7.43,15.7,16.28,15.7h9.83c8,0,14.73,6.92,14.73,15.12a14.61,14.61,0,0,1-5,10.92l-6.08,6a15.92,15.92,0,0,0,0,22.49l14.41,14.35a16,16,0,0,0,11.31,4.52,16.33,16.33,0,0,0,11.31-4.52l6.27-6.21a14.36,14.36,0,0,1,10.73-4.78c8.27,0,15.18,6.72,15.18,14.67v9.82c0,8.72,7,16.22,15.83,16.22h19.65c8.79,0,15.76-7.43,15.76-16.22v-9.82c0-7.95,6.92-14.67,15.19-14.67a15,15,0,0,1,11,5l6.08,6.07a16.41,16.41,0,0,0,22.62,0l14.41-14.34a16,16,0,0,0,0-22.56l-6.34-6.2a14.24,14.24,0,0,1-4.84-10.66,15.06,15.06,0,0,1,14.73-15.12h9.82c8.79,0,15.06-6.92,15.06-15.71v-19.7C624.07,231.36,617.8,224.44,609,224.44ZM552.34,250h0A51.7,51.7,0,0,1,449,250h0a51.7,51.7,0,1,1,103.39,0Z" transform="translate(-376.06 -125.9)"/></svg>