<?xml version="1.0" encoding="UTF-8"?>
<svg width="770px" height="768px" viewBox="0 0 770 768" version="1.1" xmlns="http://www.w3.org/2000/svg" xmlns:xlink="http://www.w3.org/1999/xlink">
    <!-- Generator: Sketch 63.1 (92452) - https://sketch.com -->
    <title>sync</title>
    <desc>Created with Sketch.</desc>
    <g id="Page-1" stroke="none" stroke-width="1" fill="none" fill-rule="evenodd">
        <g id="sync" fill="#000000" fill-rule="nonzero">
            <path d="M656.461,345.469 C668.336,427.188 643.399,513.25 579.649,576.063 C485.461,669.001 340.149,680.438 233.274,610.625 L308.149,537.625 L32.96,499.25 L71.367,768 L155.398,687.5 C306.305,798.75 520.336,788.25 657.461,652.938 C736.961,574.5 773.211,470.376 768.711,367.626 L656.461,345.469 Z M190.46,192.062 C284.616,99.124 429.898,87.624 536.773,157.5 L461.773,230.469 L736.961,268.875 L698.586,0 L614.648,80.688 C463.711,-30.656 249.742,-20.031 112.585,115.25 C33.085,193.656 -3.133,297.781 1.335,400.5 L113.585,422.625 C101.71,340.875 126.71,254.906 190.46,192.062 Z" id="Shape"></path>
        </g>
    </g>
</svg>