<?xml version="1.0" encoding="UTF-8"?>
<svg width="224px" height="224px" viewBox="0 0 224 224" version="1.1" xmlns="http://www.w3.org/2000/svg" xmlns:xlink="http://www.w3.org/1999/xlink">
    <!-- Generator: Sketch 64 (93537) - https://sketch.com -->
    <title>Step3</title>
    <desc>Created with Sketch.</desc>
    <g id="Step3" stroke="none" stroke-width="1" fill="none" fill-rule="evenodd">
        <g id="envelope" transform="translate(19.000000, 2.000000)">
            <polygon id="Path" stroke="#595959" fill="#4C8FFF" fill-rule="nonzero" points="185 136 89.3855539 89 1 136"></polygon>
            <path d="M14.0737821,6.15120222 L144.625764,6.15120222 C145.730334,6.15120222 146.625764,7.04663272 146.625764,8.15120222 L146.625764,197.451865 C146.625764,198.556434 145.730334,199.451865 144.625764,199.451865 L14.0737821,199.451865 C12.9692126,199.451865 12.0737821,198.556434 12.0737821,197.451865 L12.0737821,8.15120222 C12.0737821,7.04663272 12.9692126,6.15120222 14.0737821,6.15120222 Z" id="Rectangle" fill="#FFFFFF" fill-rule="nonzero" transform="translate(79.349773, 102.801533) rotate(-5.000000) translate(-79.349773, -102.801533) "></path>
            <path d="M14.0737821,6.15120222 L144.625764,6.15120222 C145.730334,6.15120222 146.625764,7.04663272 146.625764,8.15120222 L146.625764,197.451865 C146.625764,198.556434 145.730334,199.451865 144.625764,199.451865 L14.0737821,199.451865 C12.9692126,199.451865 12.0737821,198.556434 12.0737821,197.451865 L12.0737821,8.15120222 C12.0737821,7.04663272 12.9692126,6.15120222 14.0737821,6.15120222 Z" id="Rectangle" stroke="#595959" transform="translate(79.349773, 102.801533) rotate(-5.000000) translate(-79.349773, -102.801533) "></path>
            <line x1="49" y1="35" x2="62" y2="191" id="Path" stroke="#AFAFAF"></line>
            <line x1="98" y1="32" x2="111" y2="188" id="Path" stroke="#AFAFAF"></line>
            <path d="M11.7296379,20.3165958 L91.7085072,20.3165958 C92.2607919,20.3165958 92.7085072,20.7643111 92.7085072,21.3165958 L92.7085072,27.134793 C92.7085072,27.6870778 92.2607919,28.134793 91.7085072,28.134793 L11.7296379,28.134793 C11.1773531,28.134793 10.7296379,27.6870778 10.7296379,27.134793 L10.7296379,21.3165958 C10.7296379,20.7643111 11.1773531,20.3165958 11.7296379,20.3165958 Z" id="Rectangle" fill="#4C8FFF" fill-rule="nonzero" transform="translate(51.719073, 24.225694) rotate(-5.000000) translate(-51.719073, -24.225694) "></path>
            <path d="M13.7155005,38.7829503 L43.1722997,38.7829503 C43.7245845,38.7829503 44.1722997,39.2306656 44.1722997,39.7829503 L44.1722997,40.2648464 C44.1722997,40.8171312 43.7245845,41.2648464 43.1722997,41.2648464 L13.7155005,41.2648464 C13.1632157,41.2648464 12.7155005,40.8171312 12.7155005,40.2648464 L12.7155005,39.7829503 C12.7155005,39.2306656 13.1632157,38.7829503 13.7155005,38.7829503 Z" id="Rectangle" fill="#AFAFAF" fill-rule="nonzero" transform="translate(28.443900, 40.023898) rotate(-5.000000) translate(-28.443900, -40.023898) "></path>
            <path d="M14.3278755,45.7807778 L43.7846748,45.7807778 C44.3369595,45.7807778 44.7846748,46.2284931 44.7846748,46.7807778 L44.7846748,47.262674 C44.7846748,47.8149587 44.3369595,48.262674 43.7846748,48.262674 L14.3278755,48.262674 C13.7755908,48.262674 13.3278755,47.8149587 13.3278755,47.262674 L13.3278755,46.7807778 C13.3278755,46.2284931 13.7755908,45.7807778 14.3278755,45.7807778 Z" id="Rectangle" fill="#AFAFAF" fill-rule="nonzero" transform="translate(29.056275, 47.021726) rotate(-5.000000) translate(-29.056275, -47.021726) "></path>
            <path d="M14.9145194,52.4899646 L44.3713187,52.4899646 C44.9236034,52.4899646 45.3713187,52.9376798 45.3713187,53.4899646 L45.3713187,53.9718607 C45.3713187,54.5241455 44.9236034,54.9718607 44.3713187,54.9718607 L14.9145194,54.9718607 C14.3622347,54.9718607 13.9145194,54.5241455 13.9145194,53.9718607 L13.9145194,53.4899646 C13.9145194,52.9376798 14.3622347,52.4899646 14.9145194,52.4899646 Z" id="Rectangle" fill="#AFAFAF" fill-rule="nonzero" transform="translate(29.642919, 53.730913) rotate(-5.000000) translate(-29.642919, -53.730913) "></path>
            <path d="M15.5268945,59.4877921 L44.9836937,59.4877921 C45.5359785,59.4877921 45.9836937,59.9355074 45.9836937,60.4877921 L45.9836937,60.9696882 C45.9836937,61.521973 45.5359785,61.9696882 44.9836937,61.9696882 L15.5268945,61.9696882 C14.9746097,61.9696882 14.5268945,61.521973 14.5268945,60.9696882 L14.5268945,60.4877921 C14.5268945,59.9355074 14.9746097,59.4877921 15.5268945,59.4877921 Z" id="Rectangle" fill="#AFAFAF" fill-rule="nonzero" transform="translate(30.255294, 60.728740) rotate(-5.000000) translate(-30.255294, -60.728740) "></path>
            <path d="M16.1326369,66.4144922 L45.5894361,66.4144922 C46.1417209,66.4144922 46.5894361,66.8622075 46.5894361,67.4144922 L46.5894361,67.8963883 C46.5894361,68.4486731 46.1417209,68.8963883 45.5894361,68.8963883 L16.1326369,68.8963883 C15.5803521,68.8963883 15.1326369,68.4486731 15.1326369,67.8963883 L15.1326369,67.4144922 C15.1326369,66.8622075 15.5803521,66.4144922 16.1326369,66.4144922 Z" id="Rectangle" fill="#AFAFAF" fill-rule="nonzero" transform="translate(30.861036, 67.655440) rotate(-5.000000) translate(-30.861036, -67.655440) "></path>
            <path d="M16.7449948,73.4164166 L46.2017941,73.4164166 C46.7540788,73.4164166 47.2017941,73.8641319 47.2017941,74.4164166 L47.2017941,74.8983128 C47.2017941,75.4505975 46.7540788,75.8983128 46.2017941,75.8983128 L16.7449948,75.8983128 C16.1927101,75.8983128 15.7449948,75.4505975 15.7449948,74.8983128 L15.7449948,74.4164166 C15.7449948,73.8641319 16.1927101,73.4164166 16.7449948,73.4164166 Z" id="Rectangle" fill="#AFAFAF" fill-rule="nonzero" transform="translate(31.473394, 74.657365) rotate(-5.000000) translate(-31.473394, -74.657365) "></path>
            <path d="M17.3361268,80.1211153 L46.792926,80.1211153 C47.3452108,80.1211153 47.792926,80.5688306 47.792926,81.1211153 L47.792926,81.6030115 C47.792926,82.1552962 47.3452108,82.6030115 46.792926,82.6030115 L17.3361268,82.6030115 C16.783842,82.6030115 16.3361268,82.1552962 16.3361268,81.6030115 L16.3361268,81.1211153 C16.3361268,80.5688306 16.783842,80.1211153 17.3361268,80.1211153 Z" id="Rectangle" fill="#AFAFAF" fill-rule="nonzero" transform="translate(32.064526, 81.362063) rotate(-5.000000) translate(-32.064526, -81.362063) "></path>
            <path d="M17.9440138,87.1234309 L47.400813,87.1234309 C47.9530978,87.1234309 48.400813,87.5711462 48.400813,88.1234309 L48.400813,88.605327 C48.400813,89.1576118 47.9530978,89.605327 47.400813,89.605327 L17.9440138,89.605327 C17.391729,89.605327 16.9440138,89.1576118 16.9440138,88.605327 L16.9440138,88.1234309 C16.9440138,87.5711462 17.391729,87.1234309 17.9440138,87.1234309 Z" id="Rectangle" fill="#AFAFAF" fill-rule="nonzero" transform="translate(32.672413, 88.364379) rotate(-5.000000) translate(-32.672413, -88.364379) "></path>
            <path d="M20.4681034,115.934917 L49.9249027,115.934917 C50.4771874,115.934917 50.9249027,116.382632 50.9249027,116.934917 L50.9249027,117.416813 C50.9249027,117.969098 50.4771874,118.416813 49.9249027,118.416813 L20.4681034,118.416813 C19.9158187,118.416813 19.4681034,117.969098 19.4681034,117.416813 L19.4681034,116.934917 C19.4681034,116.382632 19.9158187,115.934917 20.4681034,115.934917 Z" id="Rectangle" fill="#AFAFAF" fill-rule="nonzero" transform="translate(35.196503, 117.175865) rotate(-5.000000) translate(-35.196503, -117.175865) "></path>
            <path d="M21.074237,122.866088 L50.5310363,122.866088 C51.083321,122.866088 51.5310363,123.313803 51.5310363,123.866088 L51.5310363,124.347984 C51.5310363,124.900269 51.083321,125.347984 50.5310363,125.347984 L21.074237,125.347984 C20.5219523,125.347984 20.074237,124.900269 20.074237,124.347984 L20.074237,123.866088 C20.074237,123.313803 20.5219523,122.866088 21.074237,122.866088 Z" id="Rectangle" fill="#AFAFAF" fill-rule="nonzero" transform="translate(35.802637, 124.107036) rotate(-5.000000) translate(-35.802637, -124.107036) "></path>
            <path d="M21.682124,129.868403 L51.1389233,129.868403 C51.691208,129.868403 52.1389233,130.316119 52.1389233,130.868403 L52.1389233,131.3503 C52.1389233,131.902584 51.691208,132.3503 51.1389233,132.3503 L21.682124,132.3503 C21.1298392,132.3503 20.682124,131.902584 20.682124,131.3503 L20.682124,130.868403 C20.682124,130.316119 21.1298392,129.868403 21.682124,129.868403 Z" id="Rectangle" fill="#AFAFAF" fill-rule="nonzero" transform="translate(36.410524, 131.109352) rotate(-5.000000) translate(-36.410524, -131.109352) "></path>
            <line x1="21" y1="138" x2="52" y2="135" id="Path" fill="#AFAFAF" fill-rule="nonzero"></line>
            <path d="M22.2728648,136.568631 L51.729664,136.568631 C52.2819488,136.568631 52.729664,137.016346 52.729664,137.568631 L52.729664,138.050527 C52.729664,138.602812 52.2819488,139.050527 51.729664,139.050527 L22.2728648,139.050527 C21.72058,139.050527 21.2728648,138.602812 21.2728648,138.050527 L21.2728648,137.568631 C21.2728648,137.016346 21.72058,136.568631 22.2728648,136.568631 Z" id="Rectangle" fill="#AFAFAF" fill-rule="nonzero" transform="translate(37.001264, 137.809579) rotate(-5.000000) translate(-37.001264, -137.809579) "></path>
            <path d="M22.9814806,144.675649 L52.4382799,144.675649 C52.9905646,144.675649 53.4382799,145.123365 53.4382799,145.675649 L53.4382799,146.157545 C53.4382799,146.70983 52.9905646,147.157545 52.4382799,147.157545 L22.9814806,147.157545 C22.4291959,147.157545 21.9814806,146.70983 21.9814806,146.157545 L21.9814806,145.675649 C21.9814806,145.123365 22.4291959,144.675649 22.9814806,144.675649 Z" id="Rectangle" fill="#AFAFAF" fill-rule="nonzero" transform="translate(37.709880, 145.916597) rotate(-5.000000) translate(-37.709880, -145.916597) "></path>
            <path d="M23.5938386,151.677574 L53.0506379,151.677574 C53.6029226,151.677574 54.0506379,152.125289 54.0506379,152.677574 L54.0506379,153.15947 C54.0506379,153.711755 53.6029226,154.15947 53.0506379,154.15947 L23.5938386,154.15947 C23.0415539,154.15947 22.5938386,153.711755 22.5938386,153.15947 L22.5938386,152.677574 C22.5938386,152.125289 23.0415539,151.677574 23.5938386,151.677574 Z" id="Rectangle" fill="#AFAFAF" fill-rule="nonzero" transform="translate(38.322238, 152.918522) rotate(-5.000000) translate(-38.322238, -152.918522) "></path>
            <path d="M24.1804996,158.382664 L53.6372988,158.382664 C54.1895836,158.382664 54.6372988,158.830379 54.6372988,159.382664 L54.6372988,159.86456 C54.6372988,160.416845 54.1895836,160.86456 53.6372988,160.86456 L24.1804996,160.86456 C23.6282148,160.86456 23.1804996,160.416845 23.1804996,159.86456 L23.1804996,159.382664 C23.1804996,158.830379 23.6282148,158.382664 24.1804996,158.382664 Z" id="Rectangle" fill="#AFAFAF" fill-rule="nonzero" transform="translate(38.908899, 159.623612) rotate(-5.000000) translate(-38.908899, -159.623612) "></path>
            <path d="M24.7928575,165.384588 L54.2496568,165.384588 C54.8019415,165.384588 55.2496568,165.832303 55.2496568,166.384588 L55.2496568,166.866484 C55.2496568,167.418769 54.8019415,167.866484 54.2496568,167.866484 L24.7928575,167.866484 C24.2405728,167.866484 23.7928575,167.418769 23.7928575,166.866484 L23.7928575,166.384588 C23.7928575,165.832303 24.2405728,165.384588 24.7928575,165.384588 Z" id="Rectangle" fill="#AFAFAF" fill-rule="nonzero" transform="translate(39.521257, 166.625536) rotate(-5.000000) translate(-39.521257, -166.625536) "></path>
            <path d="M25.3986,172.311288 L54.8553992,172.311288 C55.407684,172.311288 55.8553992,172.759003 55.8553992,173.311288 L55.8553992,173.793184 C55.8553992,174.345469 55.407684,174.793184 54.8553992,174.793184 L25.3986,174.793184 C24.8463152,174.793184 24.3986,174.345469 24.3986,173.793184 L24.3986,173.311288 C24.3986,172.759003 24.8463152,172.311288 25.3986,172.311288 Z" id="Rectangle" fill="#AFAFAF" fill-rule="nonzero" transform="translate(40.127000, 173.552236) rotate(-5.000000) translate(-40.127000, -173.552236) "></path>
            <path d="M26.010975,179.313604 L55.4677743,179.313604 C56.020059,179.313604 56.4677743,179.761319 56.4677743,180.313604 L56.4677743,180.7955 C56.4677743,181.347785 56.020059,181.7955 55.4677743,181.7955 L26.010975,181.7955 C25.4586903,181.7955 25.010975,181.347785 25.010975,180.7955 L25.010975,180.313604 C25.010975,179.761319 25.4586903,179.313604 26.010975,179.313604 Z" id="Rectangle" fill="#AFAFAF" fill-rule="nonzero" transform="translate(40.739375, 180.554552) rotate(-5.000000) translate(-40.739375, -180.554552) "></path>
            <path d="M26.623333,186.31104 L56.0801322,186.31104 C56.632417,186.31104 57.0801322,186.758755 57.0801322,187.31104 L57.0801322,187.792936 C57.0801322,188.345221 56.632417,188.792936 56.0801322,188.792936 L26.623333,188.792936 C26.0710482,188.792936 25.623333,188.345221 25.623333,187.792936 L25.623333,187.31104 C25.623333,186.758755 26.0710482,186.31104 26.623333,186.31104 Z" id="Rectangle" fill="#AFAFAF" fill-rule="nonzero" transform="translate(41.351733, 187.551988) rotate(-5.000000) translate(-41.351733, -187.551988) "></path>
            <path d="M19.2066275,91.9288291 L48.5646894,91.9288291 C49.1169742,91.9288291 49.5646894,92.3765444 49.5646894,92.9288291 L49.5646894,111.537992 C49.5646894,112.090277 49.1169742,112.537992 48.5646894,112.537992 L19.2066275,112.537992 C18.6543427,112.537992 18.2066275,112.090277 18.2066275,111.537992 L18.2066275,92.9288291 C18.2066275,92.3765444 18.6543427,91.9288291 19.2066275,91.9288291 Z" id="Rectangle" fill="#AFAFAF" fill-rule="nonzero" transform="translate(33.885658, 102.233411) rotate(-5.000000) translate(-33.885658, -102.233411) "></path>
            <path d="M58.491526,35.1593155 L87.9483253,35.1593155 C88.50061,35.1593155 88.9483253,35.6070307 88.9483253,36.1593155 L88.9483253,36.6412116 C88.9483253,37.1934964 88.50061,37.6412116 87.9483253,37.6412116 L58.491526,37.6412116 C57.9392413,37.6412116 57.491526,37.1934964 57.491526,36.6412116 L57.491526,36.1593155 C57.491526,35.6070307 57.9392413,35.1593155 58.491526,35.1593155 Z" id="Rectangle" fill="#AFAFAF" fill-rule="nonzero" transform="translate(73.219926, 36.400264) rotate(-5.000000) translate(-73.219926, -36.400264) "></path>
            <path d="M59.099413,42.1616311 L88.5562123,42.1616311 C89.108497,42.1616311 89.5562123,42.6093463 89.5562123,43.1616311 L89.5562123,43.6435272 C89.5562123,44.195812 89.108497,44.6435272 88.5562123,44.6435272 L59.099413,44.6435272 C58.5471283,44.6435272 58.099413,44.195812 58.099413,43.6435272 L58.099413,43.1616311 C58.099413,42.6093463 58.5471283,42.1616311 59.099413,42.1616311 Z" id="Rectangle" fill="#AFAFAF" fill-rule="nonzero" transform="translate(73.827813, 43.402579) rotate(-5.000000) translate(-73.827813, -43.402579) "></path>
            <path d="M59.6860569,48.8663297 L89.1428562,48.8663297 C89.6951409,48.8663297 90.1428562,49.314045 90.1428562,49.8663297 L90.1428562,50.3482259 C90.1428562,50.9005106 89.6951409,51.3482259 89.1428562,51.3482259 L59.6860569,51.3482259 C59.1337721,51.3482259 58.6860569,50.9005106 58.6860569,50.3482259 L58.6860569,49.8663297 C58.6860569,49.314045 59.1337721,48.8663297 59.6860569,48.8663297 Z" id="Rectangle" fill="#AFAFAF" fill-rule="nonzero" transform="translate(74.414457, 50.107278) rotate(-5.000000) translate(-74.414457, -50.107278) "></path>
            <path d="M60.298432,55.8686453 L89.7552312,55.8686453 C90.307516,55.8686453 90.7552312,56.3163606 90.7552312,56.8686453 L90.7552312,57.3505415 C90.7552312,57.9028262 90.307516,58.3505415 89.7552312,58.3505415 L60.298432,58.3505415 C59.7461472,58.3505415 59.298432,57.9028262 59.298432,57.3505415 L59.298432,56.8686453 C59.298432,56.3163606 59.7461472,55.8686453 60.298432,55.8686453 Z" id="Rectangle" fill="#AFAFAF" fill-rule="nonzero" transform="translate(75.026832, 57.109593) rotate(-5.000000) translate(-75.026832, -57.109593) "></path>
            <path d="M60.9041744,62.7908574 L90.3609736,62.7908574 C90.9132584,62.7908574 91.3609736,63.2385726 91.3609736,63.7908574 L91.3609736,64.2727535 C91.3609736,64.8250383 90.9132584,65.2727535 90.3609736,65.2727535 L60.9041744,65.2727535 C60.3518896,65.2727535 59.9041744,64.8250383 59.9041744,64.2727535 L59.9041744,63.7908574 C59.9041744,63.2385726 60.3518896,62.7908574 60.9041744,62.7908574 Z" id="Rectangle" fill="#AFAFAF" fill-rule="nonzero" transform="translate(75.632574, 64.031805) rotate(-5.000000) translate(-75.632574, -64.031805) "></path>
            <path d="M61.5210204,69.7927818 L90.9778196,69.7927818 C91.5301044,69.7927818 91.9778196,70.2404971 91.9778196,70.7927818 L91.9778196,71.274678 C91.9778196,71.8269627 91.5301044,72.274678 90.9778196,72.274678 L61.5210204,72.274678 C60.9687356,72.274678 60.5210204,71.8269627 60.5210204,71.274678 L60.5210204,70.7927818 C60.5210204,70.2404971 60.9687356,69.7927818 61.5210204,69.7927818 Z" id="Rectangle" fill="#AFAFAF" fill-rule="nonzero" transform="translate(76.249420, 71.033730) rotate(-5.000000) translate(-76.249420, -71.033730) "></path>
            <path d="M62.1031933,76.4978717 L91.5599925,76.4978717 C92.1122773,76.4978717 92.5599925,76.9455869 92.5599925,77.4978717 L92.5599925,77.9797678 C92.5599925,78.5320525 92.1122773,78.9797678 91.5599925,78.9797678 L62.1031933,78.9797678 C61.5509085,78.9797678 61.1031933,78.5320525 61.1031933,77.9797678 L61.1031933,77.4978717 C61.1031933,76.9455869 61.5509085,76.4978717 62.1031933,76.4978717 Z" id="Rectangle" fill="#AFAFAF" fill-rule="nonzero" transform="translate(76.831593, 77.738820) rotate(-5.000000) translate(-76.831593, -77.738820) "></path>
            <path d="M62.7155513,83.4997961 L92.1723505,83.4997961 C92.7246353,83.4997961 93.1723505,83.9475113 93.1723505,84.4997961 L93.1723505,84.9816922 C93.1723505,85.533977 92.7246353,85.9816922 92.1723505,85.9816922 L62.7155513,85.9816922 C62.1632665,85.9816922 61.7155513,85.533977 61.7155513,84.9816922 L61.7155513,84.4997961 C61.7155513,83.9475113 62.1632665,83.4997961 62.7155513,83.4997961 Z" id="Rectangle" fill="#AFAFAF" fill-rule="nonzero" transform="translate(77.443951, 84.740744) rotate(-5.000000) translate(-77.443951, -84.740744) "></path>
            <path d="M65.2396409,112.31577 L94.6964402,112.31577 C95.2487249,112.31577 95.6964402,112.763485 95.6964402,113.31577 L95.6964402,113.797666 C95.6964402,114.349951 95.2487249,114.797666 94.6964402,114.797666 L65.2396409,114.797666 C64.6873562,114.797666 64.2396409,114.349951 64.2396409,113.797666 L64.2396409,113.31577 C64.2396409,112.763485 64.6873562,112.31577 65.2396409,112.31577 Z" id="Rectangle" fill="#AFAFAF" fill-rule="nonzero" transform="translate(79.968041, 113.556718) rotate(-5.000000) translate(-79.968041, -113.556718) "></path>
            <path d="M65.8457745,119.242453 L95.3025738,119.242453 C95.8548585,119.242453 96.3025738,119.690168 96.3025738,120.242453 L96.3025738,120.724349 C96.3025738,121.276634 95.8548585,121.724349 95.3025738,121.724349 L65.8457745,121.724349 C65.2934898,121.724349 64.8457745,121.276634 64.8457745,120.724349 L64.8457745,120.242453 C64.8457745,119.690168 65.2934898,119.242453 65.8457745,119.242453 Z" id="Rectangle" fill="#AFAFAF" fill-rule="nonzero" transform="translate(80.574174, 120.483401) rotate(-5.000000) translate(-80.574174, -120.483401) "></path>
            <path d="M66.4581496,126.244769 L95.9149488,126.244769 C96.4672336,126.244769 96.9149488,126.692484 96.9149488,127.244769 L96.9149488,127.726665 C96.9149488,128.27895 96.4672336,128.726665 95.9149488,128.726665 L66.4581496,128.726665 C65.9058648,128.726665 65.4581496,128.27895 65.4581496,127.726665 L65.4581496,127.244769 C65.4581496,126.692484 65.9058648,126.244769 66.4581496,126.244769 Z" id="Rectangle" fill="#AFAFAF" fill-rule="nonzero" transform="translate(81.186549, 127.485717) rotate(-5.000000) translate(-81.186549, -127.485717) "></path>
            <line x1="66" y1="134" x2="97" y2="131" id="Path" fill="#AFAFAF" fill-rule="nonzero"></line>
            <path d="M67.0447934,132.949467 L96.5015927,132.949467 C97.0538774,132.949467 97.5015927,133.397183 97.5015927,133.949467 L97.5015927,134.431363 C97.5015927,134.983648 97.0538774,135.431363 96.5015927,135.431363 L67.0447934,135.431363 C66.4925087,135.431363 66.0447934,134.983648 66.0447934,134.431363 L66.0447934,133.949467 C66.0447934,133.397183 66.4925087,132.949467 67.0447934,132.949467 Z" id="Rectangle" fill="#AFAFAF" fill-rule="nonzero" transform="translate(81.773193, 134.190415) rotate(-5.000000) translate(-81.773193, -134.190415) "></path>
            <path d="M68.4894919,141.313007 L98.0734343,141.313007 C98.625719,141.313007 99.0734343,141.760722 99.0734343,142.313007 L99.0734343,142.804934 C99.0734343,143.357219 98.625719,143.804934 98.0734343,143.804934 L68.4894919,143.804934 C67.9372072,143.804934 67.4894919,143.357219 67.4894919,142.804934 L67.4894919,142.313007 C67.4894919,141.760722 67.9372072,141.313007 68.4894919,141.313007 Z" id="Rectangle" fill="#AFAFAF" fill-rule="nonzero" transform="translate(83.281463, 142.558970) rotate(-5.142765) translate(-83.281463, -142.558970) "></path>
            <path d="M70.7825125,175.689969 L100.239312,175.689969 C100.791597,175.689969 101.239312,176.137684 101.239312,176.689969 L101.239312,177.171865 C101.239312,177.72415 100.791597,178.171865 100.239312,178.171865 L70.7825125,178.171865 C70.2302278,178.171865 69.7825125,177.72415 69.7825125,177.171865 L69.7825125,176.689969 C69.7825125,176.137684 70.2302278,175.689969 70.7825125,175.689969 Z" id="Rectangle" fill="#AFAFAF" fill-rule="nonzero" transform="translate(85.510912, 176.930917) rotate(-5.000000) translate(-85.510912, -176.930917) "></path>
            <path d="M71.3948705,182.691893 L100.85167,182.691893 C101.403954,182.691893 101.85167,183.139609 101.85167,183.691893 L101.85167,184.17379 C101.85167,184.726074 101.403954,185.17379 100.85167,185.17379 L71.3948705,185.17379 C70.8425857,185.17379 70.3948705,184.726074 70.3948705,184.17379 L70.3948705,183.691893 C70.3948705,183.139609 70.8425857,182.691893 71.3948705,182.691893 Z" id="Rectangle" fill="#AFAFAF" fill-rule="nonzero" transform="translate(86.123270, 183.932841) rotate(-5.000000) translate(-86.123270, -183.932841) "></path>
            <path d="M63.3758511,91.0522275 L92.8326504,91.0522275 C93.3849351,91.0522275 93.8326504,91.4999427 93.8326504,92.0522275 L93.8326504,92.5341236 C93.8326504,93.0864084 93.3849351,93.5341236 92.8326504,93.5341236 L63.3758511,93.5341236 C62.8235664,93.5341236 62.3758511,93.0864084 62.3758511,92.5341236 L62.3758511,92.0522275 C62.3758511,91.4999427 62.8235664,91.0522275 63.3758511,91.0522275 Z" id="Rectangle" fill="#AFAFAF" fill-rule="nonzero" transform="translate(78.104251, 92.293176) rotate(-5.000000) translate(-78.104251, -92.293176) "></path>
            <path d="M63.9798401,97.9077831 L93.4366394,97.9077831 C93.9889241,97.9077831 94.4366394,98.3554983 94.4366394,98.9077831 L94.4366394,99.3896792 C94.4366394,99.941964 93.9889241,100.389679 93.4366394,100.389679 L63.9798401,100.389679 C63.4275554,100.389679 62.9798401,99.941964 62.9798401,99.3896792 L62.9798401,98.9077831 C62.9798401,98.3554983 63.4275554,97.9077831 63.9798401,97.9077831 Z" id="Rectangle" fill="#AFAFAF" fill-rule="nonzero" transform="translate(78.708240, 99.148731) rotate(-5.000000) translate(-78.708240, -99.148731) "></path>
            <path d="M65.2275264,105.2384 L94.8114688,105.2384 C95.3637535,105.2384 95.8114688,105.686115 95.8114688,106.2384 L95.8114688,106.730327 C95.8114688,107.282612 95.3637535,107.730327 94.8114688,107.730327 L65.2275264,107.730327 C64.6752417,107.730327 64.2275264,107.282612 64.2275264,106.730327 L64.2275264,106.2384 C64.2275264,105.686115 64.6752417,105.2384 65.2275264,105.2384 Z" id="Rectangle" fill="#AFAFAF" fill-rule="nonzero" transform="translate(80.019498, 106.484363) rotate(-5.142765) translate(-80.019498, -106.484363) "></path>
            <path d="M104.363992,30.9305134 L133.820791,30.9305134 C134.373076,30.9305134 134.820791,31.3782287 134.820791,31.9305134 L134.820791,32.4124095 C134.820791,32.9646943 134.373076,33.4124095 133.820791,33.4124095 L104.363992,33.4124095 C103.811707,33.4124095 103.363992,32.9646943 103.363992,32.4124095 L103.363992,31.9305134 C103.363992,31.3782287 103.811707,30.9305134 104.363992,30.9305134 Z" id="Rectangle" fill="#AFAFAF" fill-rule="nonzero" transform="translate(119.092391, 32.171461) rotate(-5.000000) translate(-119.092391, -32.171461) "></path>
            <path d="M107.98013,72.2731665 L137.436929,72.2731665 C137.989214,72.2731665 138.436929,72.7208817 138.436929,73.2731665 L138.436929,73.7550626 C138.436929,74.3073474 137.989214,74.7550626 137.436929,74.7550626 L107.98013,74.7550626 C107.427845,74.7550626 106.98013,74.3073474 106.98013,73.7550626 L106.98013,73.2731665 C106.98013,72.7208817 107.427845,72.2731665 107.98013,72.2731665 Z" id="Rectangle" fill="#AFAFAF" fill-rule="nonzero" transform="translate(122.708530, 73.514115) rotate(-5.000000) translate(-122.708530, -73.514115) "></path>
            <path d="M108.588017,79.270994 L138.044816,79.270994 C138.597101,79.270994 139.044816,79.7187093 139.044816,80.270994 L139.044816,80.7528902 C139.044816,81.3051749 138.597101,81.7528902 138.044816,81.7528902 L108.588017,81.7528902 C108.035732,81.7528902 107.588017,81.3051749 107.588017,80.7528902 L107.588017,80.270994 C107.588017,79.7187093 108.035732,79.270994 108.588017,79.270994 Z" id="Rectangle" fill="#AFAFAF" fill-rule="nonzero" transform="translate(123.316417, 80.511942) rotate(-5.000000) translate(-123.316417, -80.511942) "></path>
            <path d="M111.112107,108.086968 L140.568906,108.086968 C141.121191,108.086968 141.568906,108.534683 141.568906,109.086968 L141.568906,109.568864 C141.568906,110.121149 141.121191,110.568864 140.568906,110.568864 L111.112107,110.568864 C110.559822,110.568864 110.112107,110.121149 110.112107,109.568864 L110.112107,109.086968 C110.112107,108.534683 110.559822,108.086968 111.112107,108.086968 Z" id="Rectangle" fill="#AFAFAF" fill-rule="nonzero" transform="translate(125.840506, 109.327916) rotate(-5.000000) translate(-125.840506, -109.327916) "></path>
            <path d="M112.54795,115.046018 L142.131893,115.046018 C142.684178,115.046018 143.131893,115.493734 143.131893,116.046018 L143.131893,116.537946 C143.131893,117.090231 142.684178,117.537946 142.131893,117.537946 L112.54795,117.537946 C111.995666,117.537946 111.54795,117.090231 111.54795,116.537946 L111.54795,116.046018 C111.54795,115.493734 111.995666,115.046018 112.54795,115.046018 Z" id="Rectangle" fill="#AFAFAF" fill-rule="nonzero" transform="translate(127.339922, 116.291982) rotate(-5.142765) translate(-127.339922, -116.291982) "></path>
            <path d="M112.330615,122.015967 L141.787414,122.015967 C142.339699,122.015967 142.787414,122.463682 142.787414,123.015967 L142.787414,123.497863 C142.787414,124.050147 142.339699,124.497863 141.787414,124.497863 L112.330615,124.497863 C111.77833,124.497863 111.330615,124.050147 111.330615,123.497863 L111.330615,123.015967 C111.330615,122.463682 111.77833,122.015967 112.330615,122.015967 Z" id="Rectangle" fill="#AFAFAF" fill-rule="nonzero" transform="translate(127.059015, 123.256915) rotate(-5.000000) translate(-127.059015, -123.256915) "></path>
            <line x1="113" y1="131" x2="144" y2="128" id="Path" fill="#AFAFAF" fill-rule="nonzero"></line>
            <path d="M112.917259,128.720665 L142.374058,128.720665 C142.926343,128.720665 143.374058,129.168381 143.374058,129.720665 L143.374058,130.202561 C143.374058,130.754846 142.926343,131.202561 142.374058,131.202561 L112.917259,131.202561 C112.364974,131.202561 111.917259,130.754846 111.917259,130.202561 L111.917259,129.720665 C111.917259,129.168381 112.364974,128.720665 112.917259,128.720665 Z" id="Rectangle" fill="#AFAFAF" fill-rule="nonzero" transform="translate(127.645659, 129.961613) rotate(-5.000000) translate(-127.645659, -129.961613) "></path>
            <path d="M113.625484,136.827701 L143.082283,136.827701 C143.634568,136.827701 144.082283,137.275416 144.082283,137.827701 L144.082283,138.309597 C144.082283,138.861881 143.634568,139.309597 143.082283,139.309597 L113.625484,139.309597 C113.073199,139.309597 112.625484,138.861881 112.625484,138.309597 L112.625484,137.827701 C112.625484,137.275416 113.073199,136.827701 113.625484,136.827701 Z" id="Rectangle" fill="#AFAFAF" fill-rule="nonzero" transform="translate(128.353883, 138.068649) rotate(-5.000000) translate(-128.353883, -138.068649) "></path>
            <path d="M114.24233,143.829625 L143.699129,143.829625 C144.251414,143.829625 144.699129,144.27734 144.699129,144.829625 L144.699129,145.311521 C144.699129,145.863806 144.251414,146.311521 143.699129,146.311521 L114.24233,146.311521 C113.690045,146.311521 113.24233,145.863806 113.24233,145.311521 L113.24233,144.829625 C113.24233,144.27734 113.690045,143.829625 114.24233,143.829625 Z" id="Rectangle" fill="#AFAFAF" fill-rule="nonzero" transform="translate(128.970729, 145.070573) rotate(-5.000000) translate(-128.970729, -145.070573) "></path>
            <path d="M114.824503,150.534715 L144.281302,150.534715 C144.833587,150.534715 145.281302,150.98243 145.281302,151.534715 L145.281302,152.016611 C145.281302,152.568896 144.833587,153.016611 144.281302,153.016611 L114.824503,153.016611 C114.272218,153.016611 113.824503,152.568896 113.824503,152.016611 L113.824503,151.534715 C113.824503,150.98243 114.272218,150.534715 114.824503,150.534715 Z" id="Rectangle" fill="#AFAFAF" fill-rule="nonzero" transform="translate(129.552902, 151.775663) rotate(-5.000000) translate(-129.552902, -151.775663) "></path>
            <path d="M116.401666,157.720225 L145.985609,157.720225 C146.537894,157.720225 146.985609,158.16794 146.985609,158.720225 L146.985609,159.212153 C146.985609,159.764437 146.537894,160.212153 145.985609,160.212153 L116.401666,160.212153 C115.849382,160.212153 115.401666,159.764437 115.401666,159.212153 L115.401666,158.720225 C115.401666,158.16794 115.849382,157.720225 116.401666,157.720225 Z" id="Rectangle" fill="#AFAFAF" fill-rule="nonzero" transform="translate(131.193638, 158.966189) rotate(-5.142765) translate(-131.193638, -158.966189) "></path>
            <path d="M116.042603,164.458851 L145.499402,164.458851 C146.051687,164.458851 146.499402,164.906567 146.499402,165.458851 L146.499402,165.940747 C146.499402,166.493032 146.051687,166.940747 145.499402,166.940747 L116.042603,166.940747 C115.490318,166.940747 115.042603,166.493032 115.042603,165.940747 L115.042603,165.458851 C115.042603,164.906567 115.490318,164.458851 116.042603,164.458851 Z" id="Rectangle" fill="#AFAFAF" fill-rule="nonzero" transform="translate(130.771003, 165.699799) rotate(-5.000000) translate(-130.771003, -165.699799) "></path>
            <path d="M117.664023,171.694288 L147.247965,171.694288 C147.80025,171.694288 148.247965,172.142003 148.247965,172.694288 L148.247965,173.186215 C148.247965,173.7385 147.80025,174.186215 147.247965,174.186215 L117.664023,174.186215 C117.111738,174.186215 116.664023,173.7385 116.664023,173.186215 L116.664023,172.694288 C116.664023,172.142003 117.111738,171.694288 117.664023,171.694288 Z" id="Rectangle" fill="#AFAFAF" fill-rule="nonzero" transform="translate(132.455994, 172.940251) rotate(-5.142765) translate(-132.455994, -172.940251) "></path>
            <path d="M117.267336,178.463091 L146.724135,178.463091 C147.27642,178.463091 147.724135,178.910807 147.724135,179.463091 L147.724135,179.944987 C147.724135,180.497272 147.27642,180.944987 146.724135,180.944987 L117.267336,180.944987 C116.715051,180.944987 116.267336,180.497272 116.267336,179.944987 L116.267336,179.463091 C116.267336,178.910807 116.715051,178.463091 117.267336,178.463091 Z" id="Rectangle" fill="#AFAFAF" fill-rule="nonzero" transform="translate(131.995736, 179.704039) rotate(-5.000000) translate(-131.995736, -179.704039) "></path>
            <path d="M109.248317,86.8279135 L138.705116,86.8279135 C139.257401,86.8279135 139.705116,87.2756287 139.705116,87.8279135 L139.705116,88.3098096 C139.705116,88.8620944 139.257401,89.3098096 138.705116,89.3098096 L109.248317,89.3098096 C108.696032,89.3098096 108.248317,88.8620944 108.248317,88.3098096 L108.248317,87.8279135 C108.248317,87.2756287 108.696032,86.8279135 109.248317,86.8279135 Z" id="Rectangle" fill="#AFAFAF" fill-rule="nonzero" transform="translate(123.976716, 88.068862) rotate(-5.000000) translate(-123.976716, -88.068862) "></path>
            <path d="M109.852306,93.678981 L139.309105,93.678981 C139.86139,93.678981 140.309105,94.1266962 140.309105,94.678981 L140.309105,95.1608771 C140.309105,95.7131619 139.86139,96.1608771 139.309105,96.1608771 L109.852306,96.1608771 C109.300021,96.1608771 108.852306,95.7131619 108.852306,95.1608771 L108.852306,94.678981 C108.852306,94.1266962 109.300021,93.678981 109.852306,93.678981 Z" id="Rectangle" fill="#AFAFAF" fill-rule="nonzero" transform="translate(124.580705, 94.919929) rotate(-5.000000) translate(-124.580705, -94.919929) "></path>
            <path d="M110.477727,100.880926 L139.934526,100.880926 C140.486811,100.880926 140.934526,101.328641 140.934526,101.880926 L140.934526,102.362822 C140.934526,102.915107 140.486811,103.362822 139.934526,103.362822 L110.477727,103.362822 C109.925442,103.362822 109.477727,102.915107 109.477727,102.362822 L109.477727,101.880926 C109.477727,101.328641 109.925442,100.880926 110.477727,100.880926 Z" id="Rectangle" fill="#AFAFAF" fill-rule="nonzero" transform="translate(125.206126, 102.121874) rotate(-5.000000) translate(-125.206126, -102.121874) "></path>
            <path d="M69.090053,146.718184 L98.448115,146.718184 C99.0003998,146.718184 99.448115,147.1659 99.448115,147.718184 L99.448115,166.327347 C99.448115,166.879632 99.0003998,167.327347 98.448115,167.327347 L69.090053,167.327347 C68.5377683,167.327347 68.090053,166.879632 68.090053,166.327347 L68.090053,147.718184 C68.090053,147.1659 68.5377683,146.718184 69.090053,146.718184 Z" id="Rectangle" fill="#AFAFAF" fill-rule="nonzero" transform="translate(83.769084, 157.022766) rotate(-5.000000) translate(-83.769084, -157.022766) "></path>
            <path d="M70.2634684,169.712678 L99.7202677,169.712678 C100.272552,169.712678 100.720268,170.160393 100.720268,170.712678 L100.720268,171.194574 C100.720268,171.746859 100.272552,172.194574 99.7202677,172.194574 L70.2634684,172.194574 C69.7111837,172.194574 69.2634684,171.746859 69.2634684,171.194574 L69.2634684,170.712678 C69.2634684,170.160393 69.7111837,169.712678 70.2634684,169.712678 Z" id="Rectangle" fill="#AFAFAF" fill-rule="nonzero" transform="translate(84.991868, 170.953626) rotate(-5.000000) translate(-84.991868, -170.953626) "></path>
            <path d="M106.066925,36.6832132 L135.424987,36.6832132 C135.977272,36.6832132 136.424987,37.1309284 136.424987,37.6832132 L136.424987,64.5504029 C136.424987,65.1026877 135.977272,65.5504029 135.424987,65.5504029 L106.066925,65.5504029 C105.514641,65.5504029 105.066925,65.1026877 105.066925,64.5504029 L105.066925,37.6832132 C105.066925,37.1309284 105.514641,36.6832132 106.066925,36.6832132 Z" id="Rectangle" fill="#AFAFAF" fill-rule="nonzero" transform="translate(120.745956, 51.116808) rotate(-5.000000) translate(-120.745956, -51.116808) "></path>
            <rect id="Rectangle" fill="#FFFFFF" fill-rule="nonzero" x="30" y="5" width="134" height="193" rx="2"></rect>
            <rect id="Rectangle" stroke="#595959" x="30" y="5" width="134" height="193" rx="2"></rect>
            <line x1="72.5" y1="32" x2="72.5" y2="188" id="Path" stroke="#AFAFAF"></line>
            <line x1="120.5" y1="32" x2="120.5" y2="188" id="Path" stroke="#AFAFAF"></line>
            <rect id="Rectangle" fill="#4C8FFF" fill-rule="nonzero" x="35" y="17" width="82" height="8" rx="1"></rect>
            <rect id="Rectangle" fill="#AFAFAF" fill-rule="nonzero" x="36" y="32" width="31" height="3" rx="1"></rect>
            <rect id="Rectangle" fill="#AFAFAF" fill-rule="nonzero" x="36" y="41" width="31" height="3" rx="1"></rect>
            <rect id="Rectangle" fill="#AFAFAF" fill-rule="nonzero" x="36" y="47" width="31" height="3" rx="1"></rect>
            <rect id="Rectangle" fill="#AFAFAF" fill-rule="nonzero" x="36" y="54" width="31" height="3" rx="1"></rect>
            <rect id="Rectangle" fill="#AFAFAF" fill-rule="nonzero" x="36" y="61" width="31" height="3" rx="1"></rect>
            <rect id="Rectangle" fill="#AFAFAF" fill-rule="nonzero" x="36" y="68" width="31" height="3" rx="1"></rect>
            <rect id="Rectangle" fill="#AFAFAF" fill-rule="nonzero" x="36" y="74" width="31" height="3" rx="1"></rect>
            <rect id="Rectangle" fill="#AFAFAF" fill-rule="nonzero" x="36" y="81" width="31" height="3" rx="1"></rect>
            <rect id="Rectangle" fill="#AFAFAF" fill-rule="nonzero" x="36" y="110" width="31" height="3" rx="1"></rect>
            <rect id="Rectangle" fill="#AFAFAF" fill-rule="nonzero" x="36" y="118" width="31" height="3" rx="1"></rect>
            <rect id="Rectangle" fill="#AFAFAF" fill-rule="nonzero" x="36" y="125" width="31" height="3" rx="1"></rect>
            <line x1="36" y1="130.5" x2="67" y2="130.5" id="Path" fill="#AFAFAF" fill-rule="nonzero"></line>
            <rect id="Rectangle" fill="#AFAFAF" fill-rule="nonzero" x="36" y="131" width="31" height="3" rx="1"></rect>
            <rect id="Rectangle" fill="#AFAFAF" fill-rule="nonzero" x="36" y="139" width="31" height="3" rx="1"></rect>
            <rect id="Rectangle" fill="#AFAFAF" fill-rule="nonzero" x="36" y="146" width="31" height="3" rx="1"></rect>
            <rect id="Rectangle" fill="#AFAFAF" fill-rule="nonzero" x="36" y="152" width="31" height="3" rx="1"></rect>
            <rect id="Rectangle" fill="#AFAFAF" fill-rule="nonzero" x="36" y="161" width="31" height="3" rx="1"></rect>
            <rect id="Rectangle" fill="#AFAFAF" fill-rule="nonzero" x="36" y="168" width="31" height="3" rx="1"></rect>
            <rect id="Rectangle" fill="#AFAFAF" fill-rule="nonzero" x="36" y="174" width="31" height="3" rx="1"></rect>
            <rect id="Rectangle" fill="#AFAFAF" fill-rule="nonzero" x="36" y="181" width="31" height="3" rx="1"></rect>
            <rect id="Rectangle" fill="#AFAFAF" fill-rule="nonzero" x="36" y="87" width="31" height="20" rx="1"></rect>
            <rect id="Rectangle" fill="#AFAFAF" fill-rule="nonzero" x="81" y="33" width="31" height="3" rx="1"></rect>
            <rect id="Rectangle" fill="#AFAFAF" fill-rule="nonzero" x="81" y="41" width="31" height="3" rx="1"></rect>
            <rect id="Rectangle" fill="#AFAFAF" fill-rule="nonzero" x="81" y="47" width="31" height="3" rx="1"></rect>
            <rect id="Rectangle" fill="#AFAFAF" fill-rule="nonzero" x="81" y="54" width="31" height="3" rx="1"></rect>
            <rect id="Rectangle" fill="#AFAFAF" fill-rule="nonzero" x="81" y="61" width="31" height="3" rx="1"></rect>
            <rect id="Rectangle" fill="#AFAFAF" fill-rule="nonzero" x="81" y="68" width="31" height="3" rx="1"></rect>
            <rect id="Rectangle" fill="#AFAFAF" fill-rule="nonzero" x="81" y="75" width="31" height="3" rx="1"></rect>
            <rect id="Rectangle" fill="#AFAFAF" fill-rule="nonzero" x="81" y="82" width="31" height="3" rx="1"></rect>
            <rect id="Rectangle" fill="#AFAFAF" fill-rule="nonzero" x="81" y="111" width="31" height="3" rx="1"></rect>
            <rect id="Rectangle" fill="#AFAFAF" fill-rule="nonzero" x="81" y="118" width="31" height="3" rx="1"></rect>
            <rect id="Rectangle" fill="#AFAFAF" fill-rule="nonzero" x="81" y="125" width="31" height="3" rx="1"></rect>
            <line x1="81" y1="131.5" x2="112" y2="131.5" id="Path" fill="#AFAFAF" fill-rule="nonzero"></line>
            <rect id="Rectangle" fill="#AFAFAF" fill-rule="nonzero" x="81" y="131" width="31" height="3" rx="1"></rect>
            <rect id="Rectangle" fill="#AFAFAF" fill-rule="nonzero" x="81" y="140" width="31" height="3" rx="1"></rect>
            <rect id="Rectangle" fill="#AFAFAF" fill-rule="nonzero" x="81" y="174" width="31" height="3" rx="1"></rect>
            <rect id="Rectangle" fill="#AFAFAF" fill-rule="nonzero" x="81" y="182" width="31" height="3" rx="1"></rect>
            <rect id="Rectangle" fill="#AFAFAF" fill-rule="nonzero" x="81" y="89" width="31" height="3" rx="1"></rect>
            <rect id="Rectangle" fill="#AFAFAF" fill-rule="nonzero" x="81" y="96" width="31" height="3" rx="1"></rect>
            <rect id="Rectangle" fill="#AFAFAF" fill-rule="nonzero" x="81" y="104" width="31" height="3" rx="1"></rect>
            <rect id="Rectangle" fill="#AFAFAF" fill-rule="nonzero" x="127" y="33" width="31" height="3" rx="1"></rect>
            <rect id="Rectangle" fill="#AFAFAF" fill-rule="nonzero" x="127" y="74" width="31" height="3" rx="1"></rect>
            <rect id="Rectangle" fill="#AFAFAF" fill-rule="nonzero" x="127" y="82" width="31" height="3" rx="1"></rect>
            <rect id="Rectangle" fill="#AFAFAF" fill-rule="nonzero" x="127" y="110" width="31" height="3" rx="1"></rect>
            <rect id="Rectangle" fill="#AFAFAF" fill-rule="nonzero" x="127" y="118" width="31" height="3" rx="1"></rect>
            <rect id="Rectangle" fill="#AFAFAF" fill-rule="nonzero" x="127" y="125" width="31" height="3" rx="1"></rect>
            <line x1="127" y1="130.5" x2="158" y2="130.5" id="Path" fill="#AFAFAF" fill-rule="nonzero"></line>
            <rect id="Rectangle" fill="#AFAFAF" fill-rule="nonzero" x="127" y="131" width="31" height="3" rx="1"></rect>
            <rect id="Rectangle" fill="#AFAFAF" fill-rule="nonzero" x="127" y="139" width="31" height="3" rx="1"></rect>
            <rect id="Rectangle" fill="#AFAFAF" fill-rule="nonzero" x="127" y="147" width="31" height="3" rx="1"></rect>
            <rect id="Rectangle" fill="#AFAFAF" fill-rule="nonzero" x="127" y="152" width="31" height="3" rx="1"></rect>
            <rect id="Rectangle" fill="#AFAFAF" fill-rule="nonzero" x="127" y="161" width="31" height="3" rx="1"></rect>
            <rect id="Rectangle" fill="#AFAFAF" fill-rule="nonzero" x="127" y="168" width="31" height="3" rx="1"></rect>
            <rect id="Rectangle" fill="#AFAFAF" fill-rule="nonzero" x="127" y="174" width="31" height="3" rx="1"></rect>
            <rect id="Rectangle" fill="#AFAFAF" fill-rule="nonzero" x="127" y="181" width="31" height="3" rx="1"></rect>
            <rect id="Rectangle" fill="#AFAFAF" fill-rule="nonzero" x="127" y="88" width="31" height="3" rx="1"></rect>
            <rect id="Rectangle" fill="#AFAFAF" fill-rule="nonzero" x="127" y="96" width="31" height="3" rx="1"></rect>
            <rect id="Rectangle" fill="#AFAFAF" fill-rule="nonzero" x="127" y="104" width="31" height="3" rx="1"></rect>
            <rect id="Rectangle" fill="#AFAFAF" fill-rule="nonzero" x="81" y="146" width="31" height="20" rx="1"></rect>
            <rect id="Rectangle" fill="#AFAFAF" fill-rule="nonzero" x="81" y="169" width="31" height="3" rx="1"></rect>
            <rect id="Rectangle" fill="#AFAFAF" fill-rule="nonzero" x="127" y="39" width="31" height="29" rx="1"></rect>
            <path d="M12.3381055,46.461795 L201.638768,46.461795 C202.743338,46.461795 203.638768,47.3572255 203.638768,48.461795 L203.638768,179.013777 C203.638768,180.118346 202.743338,181.013777 201.638768,181.013777 L12.3381055,181.013777 C11.233536,181.013777 10.3381055,180.118346 10.3381055,179.013777 L10.3381055,48.461795 C10.3381055,47.3572255 11.233536,46.461795 12.3381055,46.461795 Z" id="Rectangle" fill="#FFFFFF" fill-rule="nonzero" transform="translate(106.988437, 113.737786) rotate(-85.000000) translate(-106.988437, -113.737786) "></path>
            <path d="M12.3381055,46.461795 L201.638768,46.461795 C202.743338,46.461795 203.638768,47.3572255 203.638768,48.461795 L203.638768,179.013777 C203.638768,180.118346 202.743338,181.013777 201.638768,181.013777 L12.3381055,181.013777 C11.233536,181.013777 10.3381055,180.118346 10.3381055,179.013777 L10.3381055,48.461795 C10.3381055,47.3572255 11.233536,46.461795 12.3381055,46.461795 Z" id="Rectangle" stroke="#595959" transform="translate(106.988437, 113.737786) rotate(-85.000000) translate(-106.988437, -113.737786) "></path>
            <line x1="88" y1="42" x2="75" y2="198" id="Path" stroke="#AFAFAF"></line>
            <line x1="136" y1="47" x2="123" y2="203" id="Path" stroke="#AFAFAF"></line>
            <path d="M90.5083969,-9.43472192 L96.3265941,-9.43472192 C96.8788789,-9.43472192 97.3265941,-8.98700666 97.3265941,-8.43472192 L97.3265941,71.5441474 C97.3265941,72.0964322 96.8788789,72.5441474 96.3265941,72.5441474 L90.5083969,72.5441474 C89.9561122,72.5441474 89.5083969,72.0964322 89.5083969,71.5441474 L89.5083969,-8.43472192 C89.5083969,-8.98700666 89.9561122,-9.43472192 90.5083969,-9.43472192 Z" id="Rectangle" fill="#4C8FFF" fill-rule="nonzero" transform="translate(93.417496, 31.554713) rotate(-85.000000) translate(-93.417496, -31.554713) "></path>
            <path d="M67.5153283,27.3400878 L67.9972245,27.3400878 C68.5495092,27.3400878 68.9972245,27.787803 68.9972245,28.3400878 L68.9972245,57.796887 C68.9972245,58.3491718 68.5495092,58.796887 67.9972245,58.796887 L67.5153283,58.796887 C66.9630436,58.796887 66.5153283,58.3491718 66.5153283,57.796887 L66.5153283,28.3400878 C66.5153283,27.787803 66.9630436,27.3400878 67.5153283,27.3400878 Z" id="Rectangle" fill="#AFAFAF" fill-rule="nonzero" transform="translate(67.756276, 43.068487) rotate(-85.000000) translate(-67.756276, -43.068487) "></path>
            <path d="M66.9058974,34.3389695 L67.3877935,34.3389695 C67.9400783,34.3389695 68.3877935,34.7866848 68.3877935,35.3389695 L68.3877935,64.7957688 C68.3877935,65.3480535 67.9400783,65.7957688 67.3877935,65.7957688 L66.9058974,65.7957688 C66.3536126,65.7957688 65.9058974,65.3480535 65.9058974,64.7957688 L65.9058974,35.3389695 C65.9058974,34.7866848 66.3536126,34.3389695 66.9058974,34.3389695 Z" id="Rectangle" fill="#AFAFAF" fill-rule="nonzero" transform="translate(67.146845, 50.067369) rotate(-85.000000) translate(-67.146845, -50.067369) "></path>
            <path d="M66.3175017,41.0473246 L66.7993978,41.0473246 C67.3516825,41.0473246 67.7993978,41.4950399 67.7993978,42.0473246 L67.7993978,71.5041239 C67.7993978,72.0564086 67.3516825,72.5041239 66.7993978,72.5041239 L66.3175017,72.5041239 C65.7652169,72.5041239 65.3175017,72.0564086 65.3175017,71.5041239 L65.3175017,42.0473246 C65.3175017,41.4950399 65.7652169,41.0473246 66.3175017,41.0473246 Z" id="Rectangle" fill="#AFAFAF" fill-rule="nonzero" transform="translate(66.558450, 56.775724) rotate(-85.000000) translate(-66.558450, -56.775724) "></path>
            <path d="M65.7076795,48.0506774 L66.1895757,48.0506774 C66.7418604,48.0506774 67.1895757,48.4983926 67.1895757,49.0506774 L67.1895757,78.5074766 C67.1895757,79.0597614 66.7418604,79.5074766 66.1895757,79.5074766 L65.7076795,79.5074766 C65.1553948,79.5074766 64.7076795,79.0597614 64.7076795,78.5074766 L64.7076795,49.0506774 C64.7076795,48.4983926 65.1553948,48.0506774 65.7076795,48.0506774 Z" id="Rectangle" fill="#AFAFAF" fill-rule="nonzero" transform="translate(65.948628, 63.779077) rotate(-85.000000) translate(-65.948628, -63.779077) "></path>
            <path d="M65.0989301,54.9756056 L65.5808262,54.9756056 C66.133111,54.9756056 66.5808262,55.4233208 66.5808262,55.9756056 L66.5808262,85.4324048 C66.5808262,85.9846896 66.133111,86.4324048 65.5808262,86.4324048 L65.0989301,86.4324048 C64.5466453,86.4324048 64.0989301,85.9846896 64.0989301,85.4324048 L64.0989301,55.9756056 C64.0989301,55.4233208 64.5466453,54.9756056 65.0989301,54.9756056 Z" id="Rectangle" fill="#AFAFAF" fill-rule="nonzero" transform="translate(65.339878, 70.704005) rotate(-85.000000) translate(-65.339878, -70.704005) "></path>
            <path d="M64.4850111,61.9744873 L64.9669072,61.9744873 C65.519192,61.9744873 65.9669072,62.4222026 65.9669072,62.9744873 L65.9669072,92.4312866 C65.9669072,92.9835713 65.519192,93.4312866 64.9669072,93.4312866 L64.4850111,93.4312866 C63.9327263,93.4312866 63.4850111,92.9835713 63.4850111,92.4312866 L63.4850111,62.9744873 C63.4850111,62.4222026 63.9327263,61.9744873 64.4850111,61.9744873 Z" id="Rectangle" fill="#AFAFAF" fill-rule="nonzero" transform="translate(64.725959, 77.702887) rotate(-85.000000) translate(-64.725959, -77.702887) "></path>
            <path d="M63.9011034,68.6828424 L64.3829995,68.6828424 C64.9352843,68.6828424 65.3829995,69.1305577 65.3829995,69.6828424 L65.3829995,99.1396417 C65.3829995,99.6919264 64.9352843,100.139642 64.3829995,100.139642 L63.9011034,100.139642 C63.3488186,100.139642 62.9011034,99.6919264 62.9011034,99.1396417 L62.9011034,69.6828424 C62.9011034,69.1305577 63.3488186,68.6828424 63.9011034,68.6828424 Z" id="Rectangle" fill="#AFAFAF" fill-rule="nonzero" transform="translate(64.142051, 84.411242) rotate(-85.000000) translate(-64.142051, -84.411242) "></path>
            <path d="M63.2871844,75.6817242 L63.7690805,75.6817242 C64.3213653,75.6817242 64.7690805,76.1294394 64.7690805,76.6817242 L64.7690805,106.138523 C64.7690805,106.690808 64.3213653,107.138523 63.7690805,107.138523 L63.2871844,107.138523 C62.7348996,107.138523 62.2871844,106.690808 62.2871844,106.138523 L62.2871844,76.6817242 C62.2871844,76.1294394 62.7348996,75.6817242 63.2871844,75.6817242 Z" id="Rectangle" fill="#AFAFAF" fill-rule="nonzero" transform="translate(63.528132, 91.410124) rotate(-85.000000) translate(-63.528132, -91.410124) "></path>
            <path d="M60.7630486,104.496858 L61.2449447,104.496858 C61.7972295,104.496858 62.2449447,104.944573 62.2449447,105.496858 L62.2449447,134.953657 C62.2449447,135.505942 61.7972295,135.953657 61.2449447,135.953657 L60.7630486,135.953657 C60.2107638,135.953657 59.7630486,135.505942 59.7630486,134.953657 L59.7630486,105.496858 C59.7630486,104.944573 60.2107638,104.496858 60.7630486,104.496858 Z" id="Rectangle" fill="#AFAFAF" fill-rule="nonzero" transform="translate(61.003997, 120.225258) rotate(-85.000000) translate(-61.003997, -120.225258) "></path>
            <path d="M60.1632582,111.422178 L60.6451543,111.422178 C61.1974391,111.422178 61.6451543,111.869893 61.6451543,112.422178 L61.6451543,141.878977 C61.6451543,142.431262 61.1974391,142.878977 60.6451543,142.878977 L60.1632582,142.878977 C59.6109734,142.878977 59.1632582,142.431262 59.1632582,141.878977 L59.1632582,112.422178 C59.1632582,111.869893 59.6109734,111.422178 60.1632582,111.422178 Z" id="Rectangle" fill="#AFAFAF" fill-rule="nonzero" transform="translate(60.404206, 127.150577) rotate(-85.000000) translate(-60.404206, -127.150577) "></path>
            <path d="M59.5493392,118.421059 L60.0312353,118.421059 C60.58352,118.421059 61.0312353,118.868775 61.0312353,119.421059 L61.0312353,148.877859 C61.0312353,149.430143 60.58352,149.877859 60.0312353,149.877859 L59.5493392,149.877859 C58.9970544,149.877859 58.5493392,149.430143 58.5493392,148.877859 L58.5493392,119.421059 C58.5493392,118.868775 58.9970544,118.421059 59.5493392,118.421059 Z" id="Rectangle" fill="#AFAFAF" fill-rule="nonzero" transform="translate(59.790287, 134.149459) rotate(-85.000000) translate(-59.790287, -134.149459) "></path>
            <line x1="43" y1="138" x2="74" y2="141" id="Path" fill="#AFAFAF" fill-rule="nonzero"></line>
            <path d="M58.9654315,125.129414 L59.4473276,125.129414 C59.9996124,125.129414 60.4473276,125.57713 60.4473276,126.129414 L60.4473276,155.586214 C60.4473276,156.138498 59.9996124,156.586214 59.4473276,156.586214 L58.9654315,156.586214 C58.4131467,156.586214 57.9654315,156.138498 57.9654315,155.586214 L57.9654315,126.129414 C57.9654315,125.57713 58.4131467,125.129414 58.9654315,125.129414 Z" id="Rectangle" fill="#AFAFAF" fill-rule="nonzero" transform="translate(59.206380, 140.857814) rotate(-85.000000) translate(-59.206380, -140.857814) "></path>
            <path d="M59.0469185,133.304933 L59.5388461,133.304933 C60.0911308,133.304933 60.5388461,133.752648 60.5388461,134.304933 L60.5388461,163.888875 C60.5388461,164.44116 60.0911308,164.888875 59.5388461,164.888875 L59.0469185,164.888875 C58.4946338,164.888875 58.0469185,164.44116 58.0469185,163.888875 L58.0469185,134.304933 C58.0469185,133.752648 58.4946338,133.304933 59.0469185,133.304933 Z" id="Rectangle" fill="#AFAFAF" fill-rule="nonzero" transform="translate(59.292882, 149.096904) rotate(-84.857235) translate(-59.292882, -149.096904) "></path>
            <path d="M57.6391224,140.237312 L58.1210185,140.237312 C58.6733033,140.237312 59.1210185,140.685027 59.1210185,141.237312 L59.1210185,170.694111 C59.1210185,171.246396 58.6733033,171.694111 58.1210185,171.694111 L57.6391224,171.694111 C57.0868376,171.694111 56.6391224,171.246396 56.6391224,170.694111 L56.6391224,141.237312 C56.6391224,140.685027 57.0868376,140.237312 57.6391224,140.237312 Z" id="Rectangle" fill="#AFAFAF" fill-rule="nonzero" transform="translate(57.880070, 155.965711) rotate(-85.000000) translate(-57.880070, -155.965711) "></path>
            <path d="M57.897841,147.055715 L58.3897685,147.055715 C58.9420533,147.055715 59.3897685,147.50343 59.3897685,148.055715 L59.3897685,177.639657 C59.3897685,178.191942 58.9420533,178.639657 58.3897685,178.639657 L57.897841,178.639657 C57.3455563,178.639657 56.897841,178.191942 56.897841,177.639657 L56.897841,148.055715 C56.897841,147.50343 57.3455563,147.055715 57.897841,147.055715 Z" id="Rectangle" fill="#AFAFAF" fill-rule="nonzero" transform="translate(58.143805, 162.847686) rotate(-84.857235) translate(-58.143805, -162.847686) "></path>
            <path d="M56.4412957,153.944549 L56.9231918,153.944549 C57.4754766,153.944549 57.9231918,154.392264 57.9231918,154.944549 L57.9231918,184.401348 C57.9231918,184.953633 57.4754766,185.401348 56.9231918,185.401348 L56.4412957,185.401348 C55.8890109,185.401348 55.4412957,184.953633 55.4412957,184.401348 L55.4412957,154.944549 C55.4412957,154.392264 55.8890109,153.944549 56.4412957,153.944549 Z" id="Rectangle" fill="#AFAFAF" fill-rule="nonzero" transform="translate(56.682244, 169.672948) rotate(-85.000000) translate(-56.682244, -169.672948) "></path>
            <path d="M55.8325462,160.869477 L56.3144424,160.869477 C56.8667271,160.869477 57.3144424,161.317192 57.3144424,161.869477 L57.3144424,191.326276 C57.3144424,191.878561 56.8667271,192.326276 56.3144424,192.326276 L55.8325462,192.326276 C55.2802615,192.326276 54.8325462,191.878561 54.8325462,191.326276 L54.8325462,161.869477 C54.8325462,161.317192 55.2802615,160.869477 55.8325462,160.869477 Z" id="Rectangle" fill="#AFAFAF" fill-rule="nonzero" transform="translate(56.073494, 176.597876) rotate(-85.000000) translate(-56.073494, -176.597876) "></path>
            <path d="M55.2231153,167.868358 L55.7050114,167.868358 C56.2572962,167.868358 56.7050114,168.316074 56.7050114,168.868358 L56.7050114,198.325158 C56.7050114,198.877442 56.2572962,199.325158 55.7050114,199.325158 L55.2231153,199.325158 C54.6708305,199.325158 54.2231153,198.877442 54.2231153,198.325158 L54.2231153,168.868358 C54.2231153,168.316074 54.6708305,167.868358 55.2231153,167.868358 Z" id="Rectangle" fill="#AFAFAF" fill-rule="nonzero" transform="translate(55.464063, 183.596758) rotate(-85.000000) translate(-55.464063, -183.596758) "></path>
            <path d="M54.6088051,174.876199 L55.0907013,174.876199 C55.642986,174.876199 56.0907013,175.323914 56.0907013,175.876199 L56.0907013,205.332998 C56.0907013,205.885283 55.642986,206.332998 55.0907013,206.332998 L54.6088051,206.332998 C54.0565204,206.332998 53.6088051,205.885283 53.6088051,205.332998 L53.6088051,175.876199 C53.6088051,175.323914 54.0565204,174.876199 54.6088051,174.876199 Z" id="Rectangle" fill="#AFAFAF" fill-rule="nonzero" transform="translate(54.849753, 190.604599) rotate(-85.000000) translate(-54.849753, -190.604599) "></path>
            <path d="M53.0102763,89.5982136 L71.6194391,89.5982136 C72.1717239,89.5982136 72.6194391,90.0459288 72.6194391,90.5982136 L72.6194391,119.956276 C72.6194391,120.50856 72.1717239,120.956276 71.6194391,120.956276 L53.0102763,120.956276 C52.4579915,120.956276 52.0102763,120.50856 52.0102763,119.956276 L52.0102763,90.5982136 C52.0102763,90.0459288 52.4579915,89.5982136 53.0102763,89.5982136 Z" id="Rectangle" fill="#AFAFAF" fill-rule="nonzero" transform="translate(62.314858, 105.277245) rotate(-85.000000) translate(-62.314858, -105.277245) "></path>
            <path d="M112.238547,31.5484138 L112.720443,31.5484138 C113.272728,31.5484138 113.720443,31.9961291 113.720443,32.5484138 L113.720443,62.0052131 C113.720443,62.5574978 113.272728,63.0052131 112.720443,63.0052131 L112.238547,63.0052131 C111.686263,63.0052131 111.238547,62.5574978 111.238547,62.0052131 L111.238547,32.5484138 C111.238547,31.9961291 111.686263,31.5484138 112.238547,31.5484138 Z" id="Rectangle" fill="#AFAFAF" fill-rule="nonzero" transform="translate(112.479495, 47.276813) rotate(-85.000000) translate(-112.479495, -47.276813) "></path>
            <path d="M111.624237,38.5517665 L112.106133,38.5517665 C112.658418,38.5517665 113.106133,38.9994818 113.106133,39.5517665 L113.106133,69.0085658 C113.106133,69.5608505 112.658418,70.0085658 112.106133,70.0085658 L111.624237,70.0085658 C111.071952,70.0085658 110.624237,69.5608505 110.624237,69.0085658 L110.624237,39.5517665 C110.624237,38.9994818 111.071952,38.5517665 111.624237,38.5517665 Z" id="Rectangle" fill="#AFAFAF" fill-rule="nonzero" transform="translate(111.865185, 54.280166) rotate(-85.000000) translate(-111.865185, -54.280166) "></path>
            <path d="M111.644671,44.8751085 L112.136598,44.8751085 C112.688883,44.8751085 113.136598,45.3228238 113.136598,45.8751085 L113.136598,75.4590508 C113.136598,76.0113356 112.688883,76.4590508 112.136598,76.4590508 L111.644671,76.4590508 C111.092386,76.4590508 110.644671,76.0113356 110.644671,75.4590508 L110.644671,45.8751085 C110.644671,45.3228238 111.092386,44.8751085 111.644671,44.8751085 Z" id="Rectangle" fill="#AFAFAF" fill-rule="nonzero" transform="translate(111.890634, 60.667080) rotate(-84.857235) translate(-111.890634, -60.667080) "></path>
            <path d="M110.42641,52.2545154 L110.908307,52.2545154 C111.460591,52.2545154 111.908307,52.7022306 111.908307,53.2545154 L111.908307,82.7113146 C111.908307,83.2635994 111.460591,83.7113146 110.908307,83.7113146 L110.42641,83.7113146 C109.874126,83.7113146 109.42641,83.2635994 109.42641,82.7113146 L109.42641,53.2545154 C109.42641,52.7022306 109.874126,52.2545154 110.42641,52.2545154 Z" id="Rectangle" fill="#AFAFAF" fill-rule="nonzero" transform="translate(110.667359, 67.982915) rotate(-85.000000) translate(-110.667359, -67.982915) "></path>
            <path d="M109.822149,59.1839316 L110.304045,59.1839316 C110.85633,59.1839316 111.304045,59.6316469 111.304045,60.1839316 L111.304045,89.6407309 C111.304045,90.1930156 110.85633,90.6407309 110.304045,90.6407309 L109.822149,90.6407309 C109.269864,90.6407309 108.822149,90.1930156 108.822149,89.6407309 L108.822149,60.1839316 C108.822149,59.6316469 109.269864,59.1839316 109.822149,59.1839316 Z" id="Rectangle" fill="#AFAFAF" fill-rule="nonzero" transform="translate(110.063097, 74.912331) rotate(-85.000000) translate(-110.063097, -74.912331) "></path>
            <path d="M109.207839,66.1872843 L109.689735,66.1872843 C110.24202,66.1872843 110.689735,66.6349996 110.689735,67.1872843 L110.689735,96.6440836 C110.689735,97.1963684 110.24202,97.6440836 109.689735,97.6440836 L109.207839,97.6440836 C108.655554,97.6440836 108.207839,97.1963684 108.207839,96.6440836 L108.207839,67.1872843 C108.207839,66.6349996 108.655554,66.1872843 109.207839,66.1872843 Z" id="Rectangle" fill="#AFAFAF" fill-rule="nonzero" transform="translate(109.448787, 81.915684) rotate(-85.000000) translate(-109.448787, -81.915684) "></path>
            <path d="M108.624322,72.8866804 L109.106218,72.8866804 C109.658503,72.8866804 110.106218,73.3343957 110.106218,73.8866804 L110.106218,103.34348 C110.106218,103.895764 109.658503,104.34348 109.106218,104.34348 L108.624322,104.34348 C108.072038,104.34348 107.624322,103.895764 107.624322,103.34348 L107.624322,73.8866804 C107.624322,73.3343957 108.072038,72.8866804 108.624322,72.8866804 Z" id="Rectangle" fill="#AFAFAF" fill-rule="nonzero" transform="translate(108.865270, 88.615080) rotate(-85.000000) translate(-108.865270, -88.615080) "></path>
            <path d="M108.010012,79.8900332 L108.491908,79.8900332 C109.044193,79.8900332 109.491908,80.3377484 109.491908,80.8900332 L109.491908,110.346832 C109.491908,110.899117 109.044193,111.346832 108.491908,111.346832 L108.010012,111.346832 C107.457727,111.346832 107.010012,110.899117 107.010012,110.346832 L107.010012,80.8900332 C107.010012,80.3377484 107.457727,79.8900332 108.010012,79.8900332 Z" id="Rectangle" fill="#AFAFAF" fill-rule="nonzero" transform="translate(108.250960, 95.618433) rotate(-85.000000) translate(-108.250960, -95.618433) "></path>
            <path d="M105.486268,108.700696 L105.968164,108.700696 C106.520448,108.700696 106.968164,109.148411 106.968164,109.700696 L106.968164,139.157495 C106.968164,139.70978 106.520448,140.157495 105.968164,140.157495 L105.486268,140.157495 C104.933983,140.157495 104.486268,139.70978 104.486268,139.157495 L104.486268,109.700696 C104.486268,109.148411 104.933983,108.700696 105.486268,108.700696 Z" id="Rectangle" fill="#AFAFAF" fill-rule="nonzero" transform="translate(105.727216, 124.429096) rotate(-85.000000) translate(-105.727216, -124.429096) "></path>
            <path d="M104.877127,115.634583 L105.359023,115.634583 C105.911308,115.634583 106.359023,116.082299 106.359023,116.634583 L106.359023,146.091383 C106.359023,146.643667 105.911308,147.091383 105.359023,147.091383 L104.877127,147.091383 C104.324842,147.091383 103.877127,146.643667 103.877127,146.091383 L103.877127,116.634583 C103.877127,116.082299 104.324842,115.634583 104.877127,115.634583 Z" id="Rectangle" fill="#AFAFAF" fill-rule="nonzero" transform="translate(105.118075, 131.362983) rotate(-85.000000) translate(-105.118075, -131.362983) "></path>
            <path d="M104.267696,122.633465 L104.749592,122.633465 C105.301877,122.633465 105.749592,123.08118 105.749592,123.633465 L105.749592,153.090264 C105.749592,153.642549 105.301877,154.090264 104.749592,154.090264 L104.267696,154.090264 C103.715411,154.090264 103.267696,153.642549 103.267696,153.090264 L103.267696,123.633465 C103.267696,123.08118 103.715411,122.633465 104.267696,122.633465 Z" id="Rectangle" fill="#AFAFAF" fill-rule="nonzero" transform="translate(104.508644, 138.361865) rotate(-85.000000) translate(-104.508644, -138.361865) "></path>
            <line x1="89" y1="143" x2="120" y2="146" id="Path" fill="#AFAFAF" fill-rule="nonzero"></line>
            <path d="M103.6793,129.337332 L104.161196,129.337332 C104.713481,129.337332 105.161196,129.785048 105.161196,130.337332 L105.161196,159.794132 C105.161196,160.346416 104.713481,160.794132 104.161196,160.794132 L103.6793,160.794132 C103.127016,160.794132 102.6793,160.346416 102.6793,159.794132 L102.6793,130.337332 C102.6793,129.785048 103.127016,129.337332 103.6793,129.337332 Z" id="Rectangle" fill="#AFAFAF" fill-rule="nonzero" transform="translate(103.920248, 145.065732) rotate(-85.000000) translate(-103.920248, -145.065732) "></path>
            <path d="M102.97626,137.446756 L103.458157,137.446756 C104.010441,137.446756 104.458157,137.894471 104.458157,138.446756 L104.458157,167.903555 C104.458157,168.45584 104.010441,168.903555 103.458157,168.903555 L102.97626,168.903555 C102.423976,168.903555 101.97626,168.45584 101.97626,167.903555 L101.97626,138.446756 C101.97626,137.894471 102.423976,137.446756 102.97626,137.446756 Z" id="Rectangle" fill="#AFAFAF" fill-rule="nonzero" transform="translate(103.217208, 153.175156) rotate(-85.000000) translate(-103.217208, -153.175156) "></path>
            <path d="M99.941455,172.081156 L100.423351,172.081156 C100.975636,172.081156 101.423351,172.528871 101.423351,173.081156 L101.423351,202.537955 C101.423351,203.09024 100.975636,203.537955 100.423351,203.537955 L99.941455,203.537955 C99.3891703,203.537955 98.941455,203.09024 98.941455,202.537955 L98.941455,173.081156 C98.941455,172.528871 99.3891703,172.081156 99.941455,172.081156 Z" id="Rectangle" fill="#AFAFAF" fill-rule="nonzero" transform="translate(100.182403, 187.809555) rotate(-85.000000) translate(-100.182403, -187.809555) "></path>
            <path d="M99.3320241,179.080037 L99.8139202,179.080037 C100.366205,179.080037 100.81392,179.527752 100.81392,180.080037 L100.81392,209.536836 C100.81392,210.089121 100.366205,210.536836 99.8139202,210.536836 L99.3320241,210.536836 C98.7797393,210.536836 98.3320241,210.089121 98.3320241,209.536836 L98.3320241,180.080037 C98.3320241,179.527752 98.7797393,179.080037 99.3320241,179.080037 Z" id="Rectangle" fill="#AFAFAF" fill-rule="nonzero" transform="translate(99.572972, 194.808437) rotate(-85.000000) translate(-99.572972, -194.808437) "></path>
            <path d="M107.349297,87.4439903 L107.831193,87.4439903 C108.383478,87.4439903 108.831193,87.8917055 108.831193,88.4439903 L108.831193,117.90079 C108.831193,118.453074 108.383478,118.90079 107.831193,118.90079 L107.349297,118.90079 C106.797013,118.90079 106.349297,118.453074 106.349297,117.90079 L106.349297,88.4439903 C106.349297,87.8917055 106.797013,87.4439903 107.349297,87.4439903 Z" id="Rectangle" fill="#AFAFAF" fill-rule="nonzero" transform="translate(107.590245, 103.172390) rotate(-85.000000) translate(-107.590245, -103.172390) "></path>
            <path d="M106.750188,94.2998442 L107.232084,94.2998442 C107.784369,94.2998442 108.232084,94.7475595 108.232084,95.2998442 L108.232084,124.756643 C108.232084,125.308928 107.784369,125.756643 107.232084,125.756643 L106.750188,125.756643 C106.197904,125.756643 105.750188,125.308928 105.750188,124.756643 L105.750188,95.2998442 C105.750188,94.7475595 106.197904,94.2998442 106.750188,94.2998442 Z" id="Rectangle" fill="#AFAFAF" fill-rule="nonzero" transform="translate(106.991136, 110.028244) rotate(-85.000000) translate(-106.991136, -110.028244) "></path>
            <path d="M106.115984,101.50027 L106.59788,101.50027 C107.150165,101.50027 107.59788,101.947985 107.59788,102.50027 L107.59788,131.957069 C107.59788,132.509354 107.150165,132.957069 106.59788,132.957069 L106.115984,132.957069 C105.563699,132.957069 105.115984,132.509354 105.115984,131.957069 L105.115984,102.50027 C105.115984,101.947985 105.563699,101.50027 106.115984,101.50027 Z" id="Rectangle" fill="#AFAFAF" fill-rule="nonzero" transform="translate(106.356932, 117.228670) rotate(-85.000000) translate(-106.356932, -117.228670) "></path>
            <path d="M158.148209,35.3531442 L158.630105,35.3531442 C159.18239,35.3531442 159.630105,35.8008595 159.630105,36.3531442 L159.630105,65.8099435 C159.630105,66.3622282 159.18239,66.8099435 158.630105,66.8099435 L158.148209,66.8099435 C157.595924,66.8099435 157.148209,66.3622282 157.148209,65.8099435 L157.148209,36.3531442 C157.148209,35.8008595 157.595924,35.3531442 158.148209,35.3531442 Z" id="Rectangle" fill="#AFAFAF" fill-rule="nonzero" transform="translate(158.389157, 51.081544) rotate(-85.000000) translate(-158.389157, -51.081544) "></path>
            <path d="M154.529496,76.6914108 L155.011392,76.6914108 C155.563677,76.6914108 156.011392,77.1391261 156.011392,77.6914108 L156.011392,107.14821 C156.011392,107.700495 155.563677,108.14821 155.011392,108.14821 L154.529496,108.14821 C153.977211,108.14821 153.529496,107.700495 153.529496,107.14821 L153.529496,77.6914108 C153.529496,77.1391261 153.977211,76.6914108 154.529496,76.6914108 Z" id="Rectangle" fill="#AFAFAF" fill-rule="nonzero" transform="translate(154.770444, 92.419810) rotate(-85.000000) translate(-154.770444, -92.419810) "></path>
            <path d="M153.920065,83.6902926 L154.401961,83.6902926 C154.954246,83.6902926 155.401961,84.1380078 155.401961,84.6902926 L155.401961,114.147092 C155.401961,114.699377 154.954246,115.147092 154.401961,115.147092 L153.920065,115.147092 C153.36778,115.147092 152.920065,114.699377 152.920065,114.147092 L152.920065,84.6902926 C152.920065,84.1380078 153.36778,83.6902926 153.920065,83.6902926 Z" id="Rectangle" fill="#AFAFAF" fill-rule="nonzero" transform="translate(154.161013, 99.418692) rotate(-85.000000) translate(-154.161013, -99.418692) "></path>
            <path d="M151.395929,112.505427 L151.877825,112.505427 C152.43011,112.505427 152.877825,112.953142 152.877825,113.505427 L152.877825,142.962226 C152.877825,143.514511 152.43011,143.962226 151.877825,143.962226 L151.395929,143.962226 C150.843644,143.962226 150.395929,143.514511 150.395929,142.962226 L150.395929,113.505427 C150.395929,112.953142 150.843644,112.505427 151.395929,112.505427 Z" id="Rectangle" fill="#AFAFAF" fill-rule="nonzero" transform="translate(151.636877, 128.233826) rotate(-85.000000) translate(-151.636877, -128.233826) "></path>
            <path d="M150.79165,119.435234 L151.273547,119.435234 C151.825831,119.435234 152.273547,119.882949 152.273547,120.435234 L152.273547,149.892033 C152.273547,150.444318 151.825831,150.892033 151.273547,150.892033 L150.79165,150.892033 C150.239366,150.892033 149.79165,150.444318 149.79165,149.892033 L149.79165,120.435234 C149.79165,119.882949 150.239366,119.435234 150.79165,119.435234 Z" id="Rectangle" fill="#AFAFAF" fill-rule="nonzero" transform="translate(151.032599, 135.163634) rotate(-85.000000) translate(-151.032599, -135.163634) "></path>
            <path d="M150.182219,126.434116 L150.664116,126.434116 C151.2164,126.434116 151.664116,126.881831 151.664116,127.434116 L151.664116,156.890915 C151.664116,157.4432 151.2164,157.890915 150.664116,157.890915 L150.182219,157.890915 C149.629935,157.890915 149.182219,157.4432 149.182219,156.890915 L149.182219,127.434116 C149.182219,126.881831 149.629935,126.434116 150.182219,126.434116 Z" id="Rectangle" fill="#AFAFAF" fill-rule="nonzero" transform="translate(150.423168, 142.162515) rotate(-85.000000) translate(-150.423168, -142.162515) "></path>
            <line x1="135" y1="146" x2="166" y2="149" id="Path" fill="#AFAFAF" fill-rule="nonzero"></line>
            <path d="M149.589353,133.137592 L150.071249,133.137592 C150.623534,133.137592 151.071249,133.585307 151.071249,134.137592 L151.071249,163.594391 C151.071249,164.146676 150.623534,164.594391 150.071249,164.594391 L149.589353,164.594391 C149.037068,164.594391 148.589353,164.146676 148.589353,163.594391 L148.589353,134.137592 C148.589353,133.585307 149.037068,133.137592 149.589353,133.137592 Z" id="Rectangle" fill="#AFAFAF" fill-rule="nonzero" transform="translate(149.830301, 148.865991) rotate(-85.000000) translate(-149.830301, -148.865991) "></path>
            <path d="M148.881825,141.247015 L149.363721,141.247015 C149.916006,141.247015 150.363721,141.694731 150.363721,142.247015 L150.363721,171.703815 C150.363721,172.256099 149.916006,172.703815 149.363721,172.703815 L148.881825,172.703815 C148.32954,172.703815 147.881825,172.256099 147.881825,171.703815 L147.881825,142.247015 C147.881825,141.694731 148.32954,141.247015 148.881825,141.247015 Z" id="Rectangle" fill="#AFAFAF" fill-rule="nonzero" transform="translate(149.122773, 156.975415) rotate(-85.000000) translate(-149.122773, -156.975415) "></path>
            <path d="M148.272003,148.250368 L148.753899,148.250368 C149.306184,148.250368 149.753899,148.698083 149.753899,149.250368 L149.753899,178.707167 C149.753899,179.259452 149.306184,179.707167 148.753899,179.707167 L148.272003,179.707167 C147.719718,179.707167 147.272003,179.259452 147.272003,178.707167 L147.272003,149.250368 C147.272003,148.698083 147.719718,148.250368 148.272003,148.250368 Z" id="Rectangle" fill="#AFAFAF" fill-rule="nonzero" transform="translate(148.512951, 163.978768) rotate(-85.000000) translate(-148.512951, -163.978768) "></path>
            <path d="M147.683998,154.949764 L148.165894,154.949764 C148.718179,154.949764 149.165894,155.397479 149.165894,155.949764 L149.165894,185.406563 C149.165894,185.958848 148.718179,186.406563 148.165894,186.406563 L147.683998,186.406563 C147.131713,186.406563 146.683998,185.958848 146.683998,185.406563 L146.683998,155.949764 C146.683998,155.397479 147.131713,154.949764 147.683998,154.949764 Z" id="Rectangle" fill="#AFAFAF" fill-rule="nonzero" transform="translate(147.924946, 170.678164) rotate(-85.000000) translate(-147.924946, -170.678164) "></path>
            <path d="M147.074176,161.953117 L147.556072,161.953117 C148.108357,161.953117 148.556072,162.400832 148.556072,162.953117 L148.556072,192.409916 C148.556072,192.962201 148.108357,193.409916 147.556072,193.409916 L147.074176,193.409916 C146.521891,193.409916 146.074176,192.962201 146.074176,192.409916 L146.074176,162.953117 C146.074176,162.400832 146.521891,161.953117 147.074176,161.953117 Z" id="Rectangle" fill="#AFAFAF" fill-rule="nonzero" transform="translate(147.315124, 177.681517) rotate(-85.000000) translate(-147.315124, -177.681517) "></path>
            <path d="M146.465427,168.882533 L146.947323,168.882533 C147.499607,168.882533 147.947323,169.330248 147.947323,169.882533 L147.947323,199.339332 C147.947323,199.891617 147.499607,200.339332 146.947323,200.339332 L146.465427,200.339332 C145.913142,200.339332 145.465427,199.891617 145.465427,199.339332 L145.465427,169.882533 C145.465427,169.330248 145.913142,168.882533 146.465427,168.882533 Z" id="Rectangle" fill="#AFAFAF" fill-rule="nonzero" transform="translate(146.706375, 184.610933) rotate(-85.000000) translate(-146.706375, -184.610933) "></path>
            <path d="M145.851508,175.881415 L146.333404,175.881415 C146.885688,175.881415 147.333404,176.32913 147.333404,176.881415 L147.333404,206.338214 C147.333404,206.890499 146.885688,207.338214 146.333404,207.338214 L145.851508,207.338214 C145.299223,207.338214 144.851508,206.890499 144.851508,206.338214 L144.851508,176.881415 C144.851508,176.32913 145.299223,175.881415 145.851508,175.881415 Z" id="Rectangle" fill="#AFAFAF" fill-rule="nonzero" transform="translate(146.092456, 191.609815) rotate(-85.000000) translate(-146.092456, -191.609815) "></path>
            <path d="M145.241685,182.884768 L145.723582,182.884768 C146.275866,182.884768 146.723582,183.332483 146.723582,183.884768 L146.723582,213.341567 C146.723582,213.893852 146.275866,214.341567 145.723582,214.341567 L145.241685,214.341567 C144.689401,214.341567 144.241685,213.893852 144.241685,213.341567 L144.241685,183.884768 C144.241685,183.332483 144.689401,182.884768 145.241685,182.884768 Z" id="Rectangle" fill="#AFAFAF" fill-rule="nonzero" transform="translate(145.482634, 198.613167) rotate(-85.000000) translate(-145.482634, -198.613167) "></path>
            <path d="M153.258959,91.2487207 L153.740855,91.2487207 C154.293139,91.2487207 154.740855,91.6964359 154.740855,92.2487207 L154.740855,121.70552 C154.740855,122.257805 154.293139,122.70552 153.740855,122.70552 L153.258959,122.70552 C152.706674,122.70552 152.258959,122.257805 152.258959,121.70552 L152.258959,92.2487207 C152.258959,91.6964359 152.706674,91.2487207 153.258959,91.2487207 Z" id="Rectangle" fill="#AFAFAF" fill-rule="nonzero" transform="translate(153.499907, 106.977120) rotate(-85.000000) translate(-153.499907, -106.977120) "></path>
            <path d="M152.660241,98.1001036 L153.142137,98.1001036 C153.694422,98.1001036 154.142137,98.5478189 154.142137,99.1001036 L154.142137,128.556903 C154.142137,129.109188 153.694422,129.556903 153.142137,129.556903 L152.660241,129.556903 C152.107956,129.556903 151.660241,129.109188 151.660241,128.556903 L151.660241,99.1001036 C151.660241,98.5478189 152.107956,98.1001036 152.660241,98.1001036 Z" id="Rectangle" fill="#AFAFAF" fill-rule="nonzero" transform="translate(152.901189, 113.828503) rotate(-85.000000) translate(-152.901189, -113.828503) "></path>
            <path d="M152.025645,105.305001 L152.507541,105.305001 C153.059826,105.305001 153.507541,105.752716 153.507541,106.305001 L153.507541,135.7618 C153.507541,136.314085 153.059826,136.7618 152.507541,136.7618 L152.025645,136.7618 C151.473361,136.7618 151.025645,136.314085 151.025645,135.7618 L151.025645,106.305001 C151.025645,105.752716 151.473361,105.305001 152.025645,105.305001 Z" id="Rectangle" fill="#AFAFAF" fill-rule="nonzero" transform="translate(152.266593, 121.033400) rotate(-85.000000) translate(-152.266593, -121.033400) "></path>
            <path d="M93.5704641,152.182847 L112.262926,152.182847 C112.81521,152.182847 113.262926,152.630563 113.262926,153.182847 L113.262926,182.667653 C113.262926,183.219938 112.81521,183.667653 112.262926,183.667653 L93.5704641,183.667653 C93.0181793,183.667653 92.5704641,183.219938 92.5704641,182.667653 L92.5704641,153.182847 C92.5704641,152.630563 93.0181793,152.182847 93.5704641,152.182847 Z" id="Rectangle" fill="#AFAFAF" fill-rule="nonzero" transform="translate(102.916695, 167.925250) rotate(-84.857235) translate(-102.916695, -167.925250) "></path>
            <path d="M100.467751,166.100162 L100.949647,166.100162 C101.501932,166.100162 101.949647,166.547877 101.949647,167.100162 L101.949647,196.556961 C101.949647,197.109246 101.501932,197.556961 100.949647,197.556961 L100.467751,197.556961 C99.9154664,197.556961 99.4677511,197.109246 99.4677511,196.556961 L99.4677511,167.100162 C99.4677511,166.547877 99.9154664,166.100162 100.467751,166.100162 Z" id="Rectangle" fill="#AFAFAF" fill-rule="nonzero" transform="translate(100.708699, 181.828561) rotate(-85.000000) translate(-100.708699, -181.828561) "></path>
            <path d="M143.298682,54.3371587 L170.165872,54.3371587 C170.718156,54.3371587 171.165872,54.7848739 171.165872,55.3371587 L171.165872,84.6952206 C171.165872,85.2475054 170.718156,85.6952206 170.165872,85.6952206 L143.298682,85.6952206 C142.746397,85.6952206 142.298682,85.2475054 142.298682,84.6952206 L142.298682,55.3371587 C142.298682,54.7848739 142.746397,54.3371587 143.298682,54.3371587 Z" id="Rectangle" fill="#AFAFAF" fill-rule="nonzero" transform="translate(156.732277, 70.016190) rotate(-85.000000) translate(-156.732277, -70.016190) "></path>
            <rect id="Rectangle" fill="#FFFFFF" fill-rule="nonzero" x="0" y="136" width="186" height="81" rx="2"></rect>
            <rect id="Rectangle" stroke="#595959" x="0" y="136" width="186" height="81" rx="2"></rect>
            <path d="M1.39813963,137 C0.904681641,137 0.864307805,137.174988 1.30842,137.394845 L96.3394574,183.84292 C96.8529106,184.059907 97.4337768,184.05177 97.9409529,183.820486 L185.695728,137.417279 C186.144326,137.188449 186.086008,137 185.59255,137 L1.39813963,137 Z" id="Path" stroke="#595959"></path>
        </g>
    </g>
</svg>